<svg width="40" height="25" viewBox="0 0 40 25" fill="none" xmlns="http://www.w3.org/2000/svg">
<path d="M36.1187 3.54206H26.1033V1.03738H36.128L36.1187 3.54206ZM19.4263 13.7944C20.0773 14.8037 20.3935 16.0187 20.3935 17.4579C20.3935 18.9439 20.0308 20.271 19.2868 21.4486C18.8126 22.2243 18.2267 22.8879 17.5293 23.4112C16.7388 24.0187 15.7996 24.4393 14.7209 24.6636C13.6421 24.8879 12.4704 25 11.2057 25H0V0H12.0148C15.0463 0.046729 17.1945 0.934579 18.4592 2.66355C19.2218 3.72897 19.5937 5 19.5937 6.48598C19.5937 8.01869 19.2125 9.24299 18.4406 10.1682C18.0128 10.6916 17.3805 11.1589 16.5435 11.5888C17.8268 12.0561 18.7847 12.785 19.4263 13.7944ZM5.7377 9.85981H11.0011C12.0799 9.85981 12.954 9.65421 13.6328 9.24299C14.3024 8.83178 14.6465 8.09346 14.6465 7.04673C14.6465 5.88785 14.2001 5.11215 13.3074 4.73832C12.5448 4.47664 11.5591 4.34579 10.3688 4.34579H5.7377V9.85981ZM15.1579 17.1028C15.1579 15.8037 14.6279 14.9065 13.577 14.4206C12.9912 14.1495 12.1542 14.0093 11.0848 14H5.7377V20.6636H11.0011C12.0799 20.6636 12.9168 20.5234 13.5213 20.2243C14.6093 19.6822 15.1579 18.6449 15.1579 17.1028ZM39.8384 13.0374C39.9593 13.8598 40.0151 15.0467 39.9965 16.5981H27.0146C27.089 18.4019 27.7028 19.6542 28.8745 20.3738C29.5812 20.8224 30.4368 21.0467 31.4411 21.0467C32.5012 21.0467 33.3661 20.7757 34.0263 20.2243C34.389 19.9346 34.7052 19.514 34.9841 18.9907H39.7454C39.6245 20.0561 39.048 21.1308 38.0157 22.2243C36.4162 23.9626 34.1844 24.8411 31.3109 24.8411C28.9396 24.8411 26.8472 24.1028 25.0338 22.6355C23.2298 21.1682 22.3184 18.785 22.3184 15.4673C22.3184 12.3551 23.1368 9.98131 24.7735 8.3271C26.4101 6.66355 28.5397 5.84112 31.1528 5.84112C32.7058 5.84112 34.1007 6.1215 35.3468 6.68224C36.5929 7.24299 37.6159 8.1215 38.4249 9.33645C39.1503 10.4019 39.6245 11.6355 39.8384 13.0374ZM35.1608 13.5047C35.0771 12.2617 34.6587 11.3178 33.9147 10.6729C33.1801 10.028 32.2501 9.70093 31.1528 9.70093C29.9532 9.70093 29.0326 10.0467 28.3723 10.729C27.7121 11.4112 27.3029 12.3364 27.1262 13.5047H35.1608Z" fill="#BA808C"/>
</svg>
