<svg viewBox="0 0 375 82" fill="none" xmlns="http://www.w3.org/2000/svg">
<path d="M153.903 46.5499C153.903 46.5499 153.902 46.5505 153.839 46.4317L153.902 46.5505L153.9 46.5515L153.898 46.5525C118.187 63.143 90.6182 71.5756 66.501 74.855C42.442 78.1265 21.826 76.2685 0 72.2732V81.5L374.726 81.7324L374.451 0.751652C316.989 -3.07858 261.871 8.36036 221.106 20.764C200.709 26.9702 183.907 33.4174 172.204 38.3128C166.353 40.7605 161.777 42.8202 158.664 44.2679C157.107 44.9917 155.917 45.5625 155.115 45.9523C154.714 46.1472 154.411 46.2968 154.208 46.3977C154.106 46.4481 154.03 46.4863 153.979 46.5119L153.907 46.5481L153.903 46.5499Z" fill="#284078"/>
</svg>
