<svg width="374" height="81" viewBox="0 0 374 81" fill="none" xmlns="http://www.w3.org/2000/svg">
<path fill-rule="evenodd" clip-rule="evenodd" d="M374 0H0V71.4746C21.8516 75.3745 42.9004 77.1606 66.9629 73.978C91.0254 70.7954 118.547 62.6104 154.215 46.4922L154.289 46.4561L154.52 46.3447L155.428 45.9106C156.23 45.5312 157.42 44.9756 158.979 44.2715C162.092 42.8633 166.668 40.8599 172.518 38.479C184.219 33.7183 201.018 27.4487 221.41 21.4131C262.158 9.35352 316.539 -2.00342 374 1.71875V0Z" fill="white"/>
<path fill-rule="evenodd" clip-rule="evenodd" d="M0 71.4746C21.8524 75.3746 42.9002 77.1606 66.9622 73.9781C91.0252 70.7955 118.546 62.6103 154.213 46.493L154.215 46.4921L154.289 46.4562C154.34 46.4311 154.417 46.3938 154.519 46.3446C154.722 46.2462 155.026 46.1005 155.427 45.9107C156.23 45.5312 157.421 44.9758 158.978 44.2716C162.092 42.8631 166.668 40.8597 172.518 38.4792C184.219 33.7182 201.018 27.4485 221.41 21.4132C262.159 9.35338 316.539 -2.00334 373.999 1.71885L374 80.7188L0 80.7197V71.4746Z" fill="#DCF8F2"/>
</svg>
