<?xml version="1.0" encoding="utf-8"?>
<!-- Generator: Adobe Illustrator 18.1.0, SVG Export Plug-In . SVG Version: 6.00 Build 0)  -->
<svg version="1.1" id="Layer_1" xmlns="http://www.w3.org/2000/svg" xmlns:xlink="http://www.w3.org/1999/xlink" x="0px" y="0px"
	 viewBox="8 98 375 93" enable-background="new 8 98 375 93" xml:space="preserve">
<path fill="#FFFFFF" d="M229,169.2C229,169.2,229,169.2,229,169.2L229,169.2L229,169.2L229,169.2c35.7-7.1,63.3-10.7,87.5-12.1
	c24.1-1.4,44.7-0.6,66.5,1.1l0-60.1L8,98l0.3,90.8c57.5,1.6,112.7-3.3,153.4-8.6c20.4-2.7,37.2-5.4,48.9-7.5
	c5.9-1,10.4-1.9,13.6-2.6c1.6-0.3,2.7-0.6,3.6-0.7c0.4-0.1,0.7-0.1,0.9-0.2C228.8,169.2,228.9,169.2,229,169.2L229,169.2L229,169.2z
	"/>
<path fill="#284078" d="M162,175.9C162,175.9,162,175.9,162,175.9L162,175.9L162,175.9L162,175.9c-35.7,7.1-63.3,10.7-87.5,12.1
	c-24.1,1.4-44.7,0.6-66.5-1.1v4l375,0.1v-34.6c-57.5-1.6-112.9,3.2-153.7,8.5c-20.4,2.7-37.2,5.4-48.9,7.5c-5.9,1-10.4,1.9-13.6,2.6
	c-1.6,0.3-2.7,0.6-3.6,0.7c-0.4,0.1-0.7,0.1-0.9,0.2C162.2,175.9,162.1,175.9,162,175.9L162,175.9L162,175.9z"/>
</svg>
