<svg width="25" height="25" viewBox="0 0 25 25" fill="none" xmlns="http://www.w3.org/2000/svg">
<path d="M12.5 0C5.60932 0 0 5.60932 0 12.5C0 19.3907 5.60932 25 12.5 25C19.3907 25 25 19.3907 25 12.5C25 5.60932 19.3907 0 12.5 0ZM20.7616 5.76165C22.2491 7.58065 23.1452 9.89247 23.172 12.4104C22.8226 12.3387 19.2921 11.6219 15.7348 12.0699C15.448 11.362 15.1703 10.7437 14.7939 9.97312C18.7545 8.36022 20.5376 6.06631 20.7616 5.76165ZM19.5789 4.53405C19.3907 4.81183 17.7778 6.97133 13.9875 8.3871C12.2401 5.17025 10.2957 2.53584 10 2.13262C13.3871 1.3172 16.9534 2.2043 19.5789 4.53405ZM7.95699 2.84946C8.23477 3.23477 10.1434 5.87814 11.9176 9.0233C6.92652 10.3495 2.52688 10.3315 2.04301 10.3226C2.74194 7.01613 4.97312 4.26523 7.95699 2.84946ZM1.819 12.5179C1.819 12.4104 1.819 12.3029 1.82796 12.1953C2.29391 12.2043 7.47312 12.276 12.8047 10.672C13.1093 11.2724 13.405 11.8817 13.6738 12.4821C9.81183 13.5663 6.30824 16.6935 4.57885 19.6505C2.85842 17.7599 1.819 15.2599 1.819 12.5179ZM5.94982 20.9409C7.06093 18.6649 10.0896 15.7168 14.3996 14.2473C15.8961 18.1452 16.5143 21.4068 16.6756 22.3477C13.2348 23.8082 9.1129 23.405 5.94982 20.9409ZM18.4677 21.371C18.3602 20.7258 17.7867 17.5986 16.3978 13.7545C19.7401 13.2168 22.6792 14.095 23.0466 14.2115C22.5627 17.1774 20.8602 19.7491 18.4677 21.371Z" fill="#BA808C"/>
</svg>
