<svg width="26" height="25" viewBox="0 0 26 25" fill="none" xmlns="http://www.w3.org/2000/svg">
<path d="M9.31139 20.1265C9.31139 20.2276 9.1949 20.3103 9.05153 20.3103C8.88128 20.3287 8.76479 20.246 8.76479 20.1265C8.76479 20.0254 8.88128 19.9427 9.02465 19.9427C9.18594 19.9243 9.31139 20.0071 9.31139 20.1265ZM7.74329 19.8968C7.70744 19.9979 7.80601 20.1173 7.95834 20.1541C8.09275 20.2092 8.24508 20.1541 8.27196 20.053C8.29884 19.9519 8.20924 19.8324 8.05691 19.7865C7.9225 19.7405 7.77913 19.7957 7.74329 19.8968ZM9.97447 19.8049C9.8311 19.8416 9.72357 19.9427 9.74149 20.0622C9.75942 20.1633 9.88486 20.2368 10.0372 20.2001C10.1806 20.1633 10.2881 20.0622 10.2702 19.9611C10.2522 19.86 10.1178 19.7957 9.97447 19.8049ZM13.2899 0C6.30063 0 0.951172 5.4406 0.951172 12.6089C0.951172 18.3436 4.47268 23.2512 9.4906 24.979C10.1358 25.0984 10.3598 24.6849 10.3598 24.354C10.3598 24.0324 10.3419 22.2678 10.3419 21.1834C10.3419 21.1834 6.81139 21.9554 6.07662 19.6394C6.07662 19.6394 5.50314 18.1323 4.67877 17.7463C4.67877 17.7463 3.52286 16.9375 4.75942 16.9467C4.75942 16.9467 6.0139 17.0478 6.70386 18.2793C7.80601 20.2736 9.66085 19.7038 10.3777 19.3637C10.4942 18.5366 10.8257 17.9668 11.1841 17.6176C8.37053 17.2959 5.52106 16.8824 5.52106 11.9013C5.52106 10.4768 5.90637 9.76918 6.71282 8.85935C6.57841 8.51931 6.15727 7.14078 6.84723 5.34869C7.90458 5.00866 10.3239 6.7456 10.3239 6.7456C11.3275 6.45152 12.4117 6.30447 13.487 6.30447C14.5623 6.30447 15.6465 6.45152 16.6501 6.7456C16.6501 6.7456 19.0784 5.00866 20.1268 5.34869C20.8168 7.14078 20.3867 8.51931 20.2612 8.85935C21.0677 9.77837 21.5605 10.486 21.5605 11.9013C21.5605 16.8916 18.5945 17.2868 15.772 17.6176C16.2379 18.022 16.6322 18.8031 16.6322 20.0162C16.6322 21.7624 16.6143 23.9129 16.6143 24.3356C16.6143 24.6757 16.8472 25.08 17.4834 24.9606C22.5372 23.2512 25.9512 18.3436 25.9512 12.6089C25.9512 5.4406 20.2791 0 13.2899 0ZM5.85261 17.829C5.78988 17.8841 5.79884 18.0036 5.88845 18.0955C5.96909 18.1782 6.08558 18.215 6.1483 18.1506C6.21103 18.0955 6.20207 17.976 6.11246 17.8841C6.03182 17.8014 5.91533 17.7646 5.85261 17.829ZM5.30601 17.4062C5.27017 17.4706 5.32393 17.5533 5.4225 17.6084C5.50314 17.6636 5.60171 17.6452 5.63755 17.5717C5.67339 17.5073 5.61963 17.4246 5.52106 17.3695C5.4225 17.3419 5.34185 17.3603 5.30601 17.4062ZM6.93684 19.2535C6.85619 19.3178 6.88307 19.474 6.99956 19.5751C7.11605 19.6946 7.25942 19.713 7.3311 19.6303C7.39382 19.5659 7.36694 19.4097 7.26838 19.3086C7.15189 19.1799 7.00852 19.1707 6.93684 19.2535ZM6.36336 18.4907C6.28271 18.5458 6.28271 18.6745 6.36336 18.794C6.444 18.9134 6.57841 18.9686 6.64114 18.9134C6.72178 18.8491 6.72178 18.7112 6.64114 18.5918C6.57841 18.4723 6.444 18.4263 6.36336 18.4907Z" fill="#BA808C"/>
</svg>
