<svg width="26" height="25" viewBox="0 0 26 25" fill="none" xmlns="http://www.w3.org/2000/svg">
<path d="M13.4549 6.08885C9.90506 6.08885 7.04934 8.95478 7.04934 12.495C7.04934 16.0353 9.91498 18.9012 13.4549 18.9012C16.9948 18.9012 19.8604 16.0353 19.8604 12.495C19.8604 8.95478 17.0047 6.08885 13.4549 6.08885ZM13.4549 16.67C11.1644 16.67 9.29029 14.8056 9.29029 12.505C9.29029 10.2043 11.1544 8.33994 13.4549 8.33994C15.7553 8.33994 17.6195 10.2043 17.6195 12.505C17.6195 14.8056 15.7454 16.67 13.4549 16.67ZM21.6155 5.83102C21.6155 6.66402 20.9413 7.32844 20.1183 7.32844C19.2853 7.32844 18.621 6.65411 18.621 5.83102C18.621 5.00793 19.2952 4.3336 20.1183 4.3336C20.9413 4.3336 21.6155 4.99802 21.6155 5.83102ZM25.8694 7.34827C25.7702 5.3451 25.3141 3.57001 23.8466 2.11226C22.389 0.644585 20.614 0.188417 18.6111 0.0892503C16.5486 -0.0297501 10.3612 -0.0297501 8.29872 0.0892503C6.30566 0.188417 4.53075 0.644586 3.06322 2.10234C1.59569 3.5601 1.13957 5.33518 1.04041 7.33836C0.921425 9.40103 0.921425 15.5891 1.04041 17.6517C1.13957 19.6549 1.59569 21.43 3.06322 22.8877C4.53075 24.3455 6.29574 24.8116 8.29872 24.9108C10.3612 25.0298 16.5486 25.0298 18.6111 24.9108C20.614 24.8116 22.389 24.3554 23.8466 22.8877C25.3042 21.43 25.7603 19.6549 25.8694 17.6517C25.9784 15.5891 25.9784 9.41095 25.8694 7.34827ZM23.202 19.8632C22.7657 20.954 21.9229 21.7969 20.8223 22.2432C19.1763 22.8977 15.2695 22.7489 13.4549 22.7489C11.6403 22.7489 7.72361 22.8977 6.08751 22.2432C4.99678 21.8068 4.15395 20.9639 3.70774 19.8632C3.0533 18.217 3.20204 14.3098 3.20204 12.495C3.20204 10.6803 3.0533 6.76319 3.70774 5.12693C4.14403 4.0361 4.98687 3.19318 6.08751 2.74693C7.73352 2.09242 11.6403 2.24117 13.4549 2.24117C15.2695 2.24117 19.1862 2.09242 20.8223 2.74693C21.913 3.18326 22.7558 4.02618 23.202 5.12693C23.8565 6.77311 23.7077 10.6803 23.7077 12.495C23.7077 14.3098 23.8466 18.2269 23.202 19.8632Z" fill="#BA808C"/>
</svg>
