<svg width="27" height="25" viewBox="0 0 27 25" fill="none" xmlns="http://www.w3.org/2000/svg">
<path d="M6.01603 24.5608H0.643232V8.16745H6.02632V24.5608H6.01603ZM3.32963 5.92579C1.61075 5.92579 0.210938 4.58079 0.210938 2.95315C0.210938 1.3255 1.61075 0 3.32963 0C5.04852 0 6.44833 1.3255 6.44833 2.95315C6.44833 4.58079 5.04852 5.92579 3.32963 5.92579ZM26.1486 24.5608H20.7861V16.5786C20.7861 14.678 20.7449 12.2414 17.9865 12.2414C15.1868 12.2414 14.7648 14.3077 14.7648 16.4421V24.5608H9.39204V8.16745H14.5487V10.3994H14.6207C15.3412 9.11285 17.091 7.74836 19.7053 7.74836C25.1502 7.74836 26.1486 11.1401 26.1486 15.5454V24.5608Z" fill="#BA808C"/>
</svg>
