<svg width="376" height="189" viewBox="0 0 376 189" fill="none" xmlns="http://www.w3.org/2000/svg">
<path fill-rule="evenodd" clip-rule="evenodd" d="M376 125.284C354.083 122.447 333.247 121.147 309.113 123.463C284.979 125.778 257.376 131.733 221.603 143.459L221.601 143.459L221.528 143.485C221.476 143.504 221.399 143.531 221.297 143.567C221.093 143.638 220.788 143.744 220.386 143.882C219.581 144.158 218.387 144.563 216.825 145.075C213.702 146.099 209.112 147.557 203.244 149.289C191.509 152.753 174.661 157.314 154.208 161.705C113.338 170.479 57.6306 178.713 -4.58458e-08 176.005L-1.54327e-05 -0.000257046L376 0.00488281L376 125.284Z" fill="#F7EFFF"/>
<path fill-rule="evenodd" clip-rule="evenodd" d="M309.113 123.463C333.246 121.147 354.082 122.446 376 125.284L376 189L-5.57021e-06 189L-5.57022e-06 176.005C57.6309 178.713 113.338 170.479 154.207 161.705C174.66 157.314 191.51 152.753 203.244 149.289C206.049 148.461 208.561 147.696 210.762 147.011C213.164 146.263 215.193 145.61 216.824 145.075C218.387 144.562 219.582 144.158 220.387 143.882L221.297 143.566L221.527 143.485L221.602 143.459C257.377 131.733 284.979 125.778 309.113 123.463Z" fill="white"/>
</svg>
