<svg width="1471" height="190" viewBox="0 0 1471 190" fill="none" xmlns="http://www.w3.org/2000/svg">
<path fill-rule="evenodd" clip-rule="evenodd" d="M1471 190V10.8705C1245.6 2.16303 1027.29 28.4012 867.445 56.6133C787.452 70.7318 721.557 85.3987 675.658 96.5364C652.708 102.105 634.758 106.792 622.543 110.087C616.436 111.734 611.763 113.033 608.616 113.921C607.042 114.365 605.851 114.706 605.052 114.936L604.149 115.197L603.862 115.281L603.854 115.283C463.943 152.987 355.989 172.135 261.598 179.58C167.21 187.025 85.7197 182.847 0 173.724V190H1471Z" fill="white"/>
<path fill-rule="evenodd" clip-rule="evenodd" d="M0 173.724C85.7198 182.847 167.211 187.025 261.598 179.58C355.989 172.135 463.944 152.987 603.854 115.283L603.862 115.281L603.865 115.28L604.15 115.197C604.351 115.139 604.652 115.051 605.052 114.936C605.85 114.706 607.042 114.365 608.616 113.921C611.763 113.033 616.436 111.734 622.543 110.087C634.758 106.792 652.708 102.105 675.658 96.5364C721.557 85.3987 787.452 70.7318 867.445 56.6133C1027.29 28.4012 1245.6 2.16303 1471 10.8705V0H0V173.724Z" fill="#BA808C"/>
</svg>
