<svg width="1471" height="323" viewBox="0 0 1471 323" fill="none" xmlns="http://www.w3.org/2000/svg">
<path fill-rule="evenodd" clip-rule="evenodd" d="M1471 322.351V18.9356C1245.59 3.87636 1027.34 49.2542 867.49 98.0458C787.492 122.463 721.594 147.829 675.693 167.091C652.742 176.722 634.791 184.828 622.575 190.526C616.468 193.375 611.794 195.622 608.647 197.157C607.073 197.925 605.881 198.515 605.083 198.913L604.181 199.364L603.893 199.509L603.885 199.513C463.967 264.72 356.007 297.836 261.611 310.712C167.219 323.587 85.7241 316.362 0 300.583V322.351H1471Z" fill="white"/>
<path fill-rule="evenodd" clip-rule="evenodd" d="M0 301.232C85.7242 317.011 167.219 324.236 261.611 311.361C356.007 298.485 463.967 265.369 603.885 200.162L603.893 200.158L603.896 200.156L604.181 200.013C604.382 199.912 604.683 199.761 605.083 199.562C605.882 199.164 607.073 198.574 608.647 197.806C611.794 196.271 616.468 194.024 622.575 191.175C634.79 185.477 652.742 177.371 675.693 167.74C721.594 148.478 787.493 123.112 867.49 98.6948C1027.34 49.9032 1245.59 4.52544 1471 19.5846V0H0V301.232Z" fill="#BA808C"/>
</svg>
