<svg class="curve" version="1.1" id="Layer_1" xmlns="http://www.w3.org/2000/svg" xmlns:xlink="http://www.w3.org/1999/xlink" x="0px" y="0px"
	 viewBox="8 104 375 82" enable-background="new 8 104 375 82" xml:space="preserve">
<path fill="#6262C3" d="M161.9,150.5c0,0,0,0-0.1-0.1L161.9,150.5L161.9,150.5L161.9,150.5c-35.7,16.6-63.3,25-87.4,28.3
	c-24.1,3.3-44.7,1.4-66.5-2.6l0.3,9.5h374.5l-0.3-81c-57.5-3.8-112.6,7.6-153.3,20c-20.4,6.2-37.2,12.7-48.9,17.5
	c-5.9,2.4-10.4,4.5-13.5,6c-1.6,0.7-2.7,1.3-3.5,1.7c-0.4,0.2-0.7,0.3-0.9,0.4C162.1,150.4,162,150.5,161.9,150.5L161.9,150.5
	L161.9,150.5z"/>
</svg>
