<svg width="36" height="49" viewBox="0 0 36 49" fill="none" xmlns="http://www.w3.org/2000/svg">
<path d="M1.43501 1.19666H0.187175V0.314916C0.187175 0.12597 0.249567 0.0629883 0.436742 0.0629883H0V1.19666H1.43501Z" fill="#0164E3"/>
<path d="M3.80589 24.2481H3.93067C8.36048 24.2481 11.9168 22.9254 14.3501 20.7841H12.3535C10.1698 22.2326 7.29982 23.1144 3.80589 23.1144H2.24609V24.311L3.6811 26.3265H5.24089L3.80589 24.2481Z" fill="#0164E3"/>
<path d="M18.0936 12.0296C18.0936 6.991 15.3484 3.02313 10.6066 1.19666H1.43506H1.49745H3.80594C11.9793 1.19666 16.9082 5.66838 16.9082 12.0925C16.9082 15.7455 15.286 18.8316 12.3536 20.7841H14.3501C16.7834 18.5797 18.0936 15.5566 18.0936 12.0296Z" fill="#0164E3"/>
<path d="M20.7141 47.9293L5.24094 26.2635H3.68115L18.9671 47.9293H20.7141Z" fill="#0164E3"/>
<path d="M24.6447 22.7365C29.8232 21.036 32.6932 16.8792 32.6932 11.7147C32.6932 4.84961 27.5771 0 18.9047 0H0.499106C0.436714 0 0.436714 0 0.436714 0H3.99304C6.48871 0 8.73481 0.440874 10.669 1.13368H18.7175C26.6412 1.13368 31.4454 5.54242 31.4454 11.7147C31.4454 17.509 27.3275 21.7288 20.4021 22.3586V23.6183H20.9012C29.3241 23.6183 34.7521 28.5308 34.7521 35.7108C34.7521 42.8907 29.3865 47.9293 20.9012 47.9293H20.714L21.2131 48.6221C21.3379 48.8111 21.2131 48.937 21.026 48.937H19.9653C19.8405 48.937 19.6534 48.874 19.591 48.7481L18.967 47.8663H1.43498H0.124756V48.7481C0.124756 48.937 0.187148 49 0.436714 49H21.0884C30.2599 49 36 43.4576 36 35.5848C36 28.9717 31.6949 23.9332 24.6447 22.7365Z" fill="#0164E3"/>
<path d="M19.591 48.7481C19.6533 48.8741 19.7781 48.937 19.9653 48.937H21.026C21.2131 48.937 21.4003 48.8111 21.2131 48.6221L20.714 47.9293H18.967L19.591 48.7481Z" fill="#0164E3"/>
<path d="M0.187256 0.251928V1.13368H1.43509H10.6067C8.67253 0.440874 6.48882 0 3.93076 0H0.436823C0.249648 0.062982 0.187256 0.125964 0.187256 0.251928Z" fill="#0164E3"/>
</svg>
