<svg width="36" height="49" viewBox="0 0 36 49" fill="none" xmlns="http://www.w3.org/2000/svg">
<path d="M1.43501 1.19666H0.187175V0.314916C0.187175 0.12597 0.249567 0.0629883 0.436742 0.0629883H0V1.19666H1.43501Z" fill="#7D00FD"/>
<path d="M3.80589 24.2482H3.93067C8.36048 24.2482 11.9168 22.9256 14.3501 20.7842H12.3535C10.1698 22.2328 7.29982 23.1145 3.80589 23.1145H2.24609V24.3112L3.6811 26.3266H5.24089L3.80589 24.2482Z" fill="#7D00FD"/>
<path d="M18.0922 12.0297C18.0922 6.99112 15.3469 3.02326 10.6052 1.19678H1.43359H1.49599H3.80448C11.9778 1.19678 16.9067 5.6685 16.9067 12.0927C16.9067 15.7456 15.2845 18.8317 12.3521 20.7842H14.3487C16.7819 18.5798 18.0922 15.5567 18.0922 12.0297Z" fill="#7D00FD"/>
<path d="M20.7126 47.9292L5.23948 26.2634H3.67969L18.9657 47.9292H20.7126Z" fill="#7D00FD"/>
<path d="M24.6449 22.7365C29.8234 21.036 32.6935 16.8792 32.6935 11.7147C32.6935 4.84961 27.5773 0 18.9049 0H0.49935C0.436958 0 0.436958 0 0.436958 0H3.99328C6.48895 0 8.73505 0.440874 10.6692 1.13368H18.7177C26.6415 1.13368 31.4456 5.54242 31.4456 11.7147C31.4456 17.509 27.3278 21.7288 20.4023 22.3586V23.6183H20.9014C29.3243 23.6183 34.7524 28.5308 34.7524 35.7108C34.7524 42.8907 29.3867 47.9293 20.9014 47.9293H20.7143L21.2134 48.6221C21.3382 48.8111 21.2134 48.937 21.0262 48.937H19.9656C19.8408 48.937 19.6536 48.874 19.5912 48.7481L18.9673 47.8663H1.43523H0.125V48.7481C0.125 48.937 0.187392 49 0.436958 49H21.0886C30.2602 49 36.0002 43.4576 36.0002 35.5848C36.0002 28.9717 31.6952 23.9332 24.6449 22.7365Z" fill="#7D00FD"/>
<path d="M19.5927 48.748C19.6551 48.8739 19.7798 48.9369 19.967 48.9369H21.0277C21.2149 48.9369 21.402 48.8109 21.2149 48.622L20.7157 47.9292H18.9688L19.5927 48.748Z" fill="#7D00FD"/>
<path d="M0.1875 0.251928V1.13368H1.43533H10.6069C8.67277 0.440874 6.48906 0 3.931 0H0.437067C0.249892 0.062982 0.1875 0.125964 0.1875 0.251928Z" fill="#7D00FD"/>
</svg>
