<svg width="36" height="49" viewBox="0 0 36 49" fill="none" xmlns="http://www.w3.org/2000/svg">
<path d="M1.43501 1.19666H0.187175V0.314916C0.187175 0.12597 0.249567 0.0629883 0.436742 0.0629883H0V1.19666H1.43501Z" fill="#284078"/>
<path d="M3.80587 24.2482H3.93065C8.36046 24.2482 11.9168 22.9256 14.3501 20.7842H12.3535C10.1698 22.2328 7.2998 23.1145 3.80587 23.1145H2.24608V24.3112L3.68109 26.3266H5.24088L3.80587 24.2482Z" fill="#284078"/>
<path d="M18.0936 12.0297C18.0936 6.99112 15.3483 3.02326 10.6066 1.19678H1.435H1.49739H3.80588C11.9792 1.19678 16.9081 5.6685 16.9081 12.0927C16.9081 15.7456 15.286 18.8317 12.3535 20.7842H14.3501C16.7834 18.5798 18.0936 15.5567 18.0936 12.0297Z" fill="#284078"/>
<path d="M20.7141 47.9292L5.24091 26.2634H3.68112L18.9671 47.9292H20.7141Z" fill="#284078"/>
<path d="M24.6447 22.7365C29.8232 21.036 32.6932 16.8792 32.6932 11.7147C32.6932 4.84961 27.5771 0 18.9047 0H0.499136C0.436745 0 0.436745 0 0.436745 0H3.99307C6.48874 0 8.73484 0.440874 10.669 1.13368H18.7175C26.6412 1.13368 31.4454 5.54242 31.4454 11.7147C31.4454 17.509 27.3276 21.7288 20.4021 22.3586V23.6183H20.9012C29.3241 23.6183 34.7522 28.5308 34.7522 35.7108C34.7522 42.8907 29.3865 47.9293 20.9012 47.9293H20.714L21.2132 48.6221C21.338 48.8111 21.2132 48.937 21.026 48.937H19.9653C19.8406 48.937 19.6534 48.874 19.591 48.7481L18.9671 47.8663H1.43501H0.124786V48.7481C0.124786 48.937 0.187178 49 0.436745 49H21.0884C30.26 49 36 43.4576 36 35.5848C36 28.9717 31.695 23.9332 24.6447 22.7365Z" fill="#284078"/>
<path d="M19.591 48.748C19.6534 48.8739 19.7782 48.9369 19.9654 48.9369H21.026C21.2132 48.9369 21.4004 48.8109 21.2132 48.622L20.7141 47.9292H18.9671L19.591 48.748Z" fill="#284078"/>
<path d="M0.187164 0.251928V1.13368H1.435H10.6066C8.67243 0.440874 6.48872 0 3.93067 0H0.436731C0.249556 0.062982 0.187164 0.125964 0.187164 0.251928Z" fill="#284078"/>
</svg>
