<svg width="376" height="331" viewBox="0 0 376 331" fill="none" xmlns="http://www.w3.org/2000/svg">
<path fill-rule="evenodd" clip-rule="evenodd" d="M0 204.721C21.9172 207.558 42.7532 208.858 66.8866 206.542C91.0209 204.227 118.624 198.272 154.397 186.546L154.399 186.546L154.472 186.519C154.524 186.501 154.601 186.474 154.703 186.438C154.907 186.367 155.212 186.261 155.614 186.123C156.419 185.846 157.613 185.442 159.175 184.93C162.298 183.905 166.888 182.448 172.756 180.716C184.491 177.252 201.339 172.691 221.792 168.3C262.662 159.526 318.369 151.292 376 154V330.005L0 330L0 204.721Z" fill="#A5EDDD"/>
<path fill-rule="evenodd" clip-rule="evenodd" d="M376 0H0V204.721C21.918 207.559 42.7539 208.857 66.8867 206.542C91.0215 204.227 118.623 198.271 154.398 186.546L154.473 186.52L154.703 186.438L155.613 186.123C156.418 185.847 157.613 185.442 159.176 184.93C162.299 183.905 166.889 182.448 172.756 180.716C184.49 177.252 201.34 172.69 221.793 168.3C262.662 159.526 318.369 151.292 376 154V0Z" fill="white"/>
</svg>
