<?xml version="1.0" encoding="utf-8"?>
<!-- Generator: Adobe Illustrator 18.1.0, SVG Export Plug-In . SVG Version: 6.00 Build 0)  -->
<svg version="1.1" id="Layer_1" xmlns="http://www.w3.org/2000/svg" xmlns:xlink="http://www.w3.org/1999/xlink" x="0px" y="0px"
	 viewBox="8 95 375 99" enable-background="new 8 95 375 99" xml:space="preserve">
<path fill="#6B7CAA" d="M8,146.5c21.9-2.5,42.6-3.7,66.7-1.6c24.1,2.1,51.6,7.4,87.3,17.8l0,0l0.1,0c0.1,0,0.1,0,0.2,0.1
	c0.2,0.1,0.5,0.2,0.9,0.3c0.8,0.2,2,0.6,3.6,1.1c3.1,0.9,7.7,2.2,13.5,3.7c11.7,3.1,28.5,7.1,48.9,11c40.8,7.8,96.3,15.1,153.8,12.7
	v0V94H8V146.5z"/>
</svg>
