<svg width="375" height="99" viewBox="0 0 375 99" fill="none" xmlns="http://www.w3.org/2000/svg">
<path fill-rule="evenodd" clip-rule="evenodd" d="M375 98.1787V96.7041C317.523 99.1172 261.963 91.8565 221.203 84.0557C200.805 80.1524 184 76.0967 172.297 73.0166C166.443 71.4766 161.867 70.1807 158.752 69.2696C157.193 68.8145 156.002 68.4551 155.199 68.21L154.291 67.9287L154.061 67.8565L153.988 67.834C118.309 57.4073 90.7793 52.1123 66.709 50.0537C42.6387 47.9951 22.0215 49.1719 0.162109 51.6944L0.15625 51.6739H0V98.1787H375Z" fill="white"/>
<path fill-rule="evenodd" clip-rule="evenodd" d="M0 52.4948C21.8589 49.9721 42.6395 48.8168 66.7086 50.8754C90.7788 52.9341 118.308 58.2287 153.986 68.6542L153.988 68.6548L154.061 68.678C154.112 68.6942 154.189 68.7184 154.291 68.7502C154.495 68.8138 154.799 68.9081 155.2 69.0308C156.003 69.2763 157.194 69.6356 158.752 70.0911C161.866 71.0022 166.444 72.2981 172.296 73.8379C184 76.9176 200.804 80.9731 221.203 84.8771C261.964 92.678 317.523 99.9386 375 97.5309V97.5254V0L0 0L0 52.4948Z" fill="#6B7CAA"/>
</svg>
