<svg width="376" height="192" viewBox="0 0 376 192" fill="none" xmlns="http://www.w3.org/2000/svg">
<path fill-rule="evenodd" clip-rule="evenodd" d="M0 65.7219C21.9172 68.5593 42.7532 69.8586 66.8866 67.5433C91.0209 65.2279 118.624 59.2729 154.397 47.5472L154.399 47.5465L154.472 47.5204C154.524 47.5022 154.601 47.475 154.703 47.4392C154.907 47.3677 155.212 47.2616 155.614 47.1236C156.419 46.8475 157.613 46.4434 159.175 45.931C162.298 44.9064 166.888 43.4488 172.756 41.7169C184.491 38.2532 201.339 33.6918 221.792 29.301C262.662 20.5272 318.369 12.293 376 15.001V191.006L0 191.001L0 65.7219Z" fill="#DCF8F2"/>
<path fill-rule="evenodd" clip-rule="evenodd" d="M376 0H0V65.7227C21.918 68.5586 42.7539 69.8594 66.8867 67.543C91.0215 65.2285 118.623 59.2734 154.398 47.5469L154.473 47.5195L154.703 47.4395L155.613 47.123C156.418 46.8477 157.613 46.4434 159.176 45.9316C162.299 44.9062 166.889 43.4492 172.756 41.7168C184.49 38.2539 201.34 33.6914 221.793 29.3008C262.662 20.5273 318.369 12.293 376 15V0Z" fill="white"/>
</svg>
