<svg width="377" height="189" viewBox="0 0 377 189" fill="none" xmlns="http://www.w3.org/2000/svg">
<path fill-rule="evenodd" clip-rule="evenodd" d="M376.998 63.716C355.081 66.5534 334.245 67.8527 310.111 65.5374C285.977 63.222 258.375 57.267 222.602 45.5413L222.6 45.5406L222.526 45.5145C222.475 45.4963 222.398 45.4691 222.295 45.4333C222.091 45.3618 221.786 45.2558 221.384 45.1177C220.579 44.8416 219.385 44.4375 217.823 43.9252C214.7 42.9005 210.11 41.443 204.243 39.7111C192.507 36.2473 175.659 31.686 155.206 27.2952C114.336 18.5213 58.6286 10.2871 0.998047 12.9951V189L376.998 188.995V63.716Z" fill="#F7EFFF"/>
<path fill-rule="evenodd" clip-rule="evenodd" d="M310.111 65.5371C334.244 67.8525 355.08 66.5537 376.998 63.7158L376.998 0L0.998041 3.2871e-05L0.998042 12.9952C58.6289 10.2871 114.336 18.5215 155.205 27.2949C175.658 31.6856 192.508 36.2471 204.242 39.711C210.109 41.4434 214.699 42.9004 217.822 43.9248C219.385 44.4375 220.58 44.8418 221.385 45.1182L222.295 45.4336L222.525 45.5147L222.6 45.541C258.375 57.2666 285.977 63.2217 310.111 65.5371Z" fill="white"/>
</svg>
