<svg width="399" height="59" viewBox="0 0 399 59" fill="none" xmlns="http://www.w3.org/2000/svg">
<path fill-rule="evenodd" clip-rule="evenodd" d="M0 8.10564C23.251 5.3081 45.6455 4.02702 71.2475 6.30981C96.8505 8.5927 126.133 14.4641 164.083 26.0251L164.085 26.0258L164.163 26.0515C164.218 26.0695 164.299 26.0963 164.408 26.1316C164.624 26.2021 164.948 26.3067 165.374 26.4428C166.228 26.715 167.496 27.1134 169.152 27.6186C172.465 28.6288 177.334 30.0659 183.559 31.7735C196.009 35.1886 213.882 39.6859 235.58 44.015C278.937 52.6656 337.57 60.6463 398.707 57.9764V58.0411H398.999L399 0L0.000567704 0L0 8.10564Z" fill="#F7EFFF"/>
<path fill-rule="evenodd" clip-rule="evenodd" d="M71.248 5.30957C45.6465 3.02685 23.252 4.3081 0 7.10547V58.5H399L398.998 57.041H398.707V56.9766C337.57 59.6465 278.938 51.6655 235.58 43.0151C213.883 38.686 196.008 34.1885 183.559 30.7734C177.334 29.0659 172.465 27.6289 169.152 26.6187C168.266 26.3481 167.49 26.1084 166.83 25.9023L165.375 25.4429L164.408 25.1313L164.162 25.0518L164.084 25.0259C126.133 13.4639 96.8496 7.59277 71.248 5.30957Z" fill="white"/>
</svg>
