<?xml version="1.0" encoding="utf-8"?>
<!-- Generator: Adobe Illustrator 18.1.0, SVG Export Plug-In . SVG Version: 6.00 Build 0)  -->
<svg version="1.1" id="Layer_1" xmlns="http://www.w3.org/2000/svg" xmlns:xlink="http://www.w3.org/1999/xlink" x="0px" y="0px"
	 viewBox="20 115 399 59" enable-background="new 20 115 399 59" xml:space="preserve">
<path fill="#F7EFFF" d="M20,123.1c23.3-2.8,45.6-4.1,71.2-1.8c25.6,2.3,54.9,8.2,92.8,19.7l0,0l0.1,0c0.1,0,0.1,0,0.2,0.1
	c0.2,0.1,0.5,0.2,1,0.3c0.9,0.3,2.1,0.7,3.8,1.2c3.3,1,8.2,2.4,14.4,4.2c12.4,3.4,30.3,7.9,52,12.2c43.4,8.7,102,16.6,163.1,14v0.1
	h0.3l0-58H20L20,123.1z"/>
<path fill="#FFFFFF" d="M91.2,120.3c-25.6-2.3-48-1-71.2,1.8v51.4h399l0-1.5h-0.3V172c-61.1,2.7-119.8-5.3-163.1-14
	c-21.7-4.3-39.6-8.8-52-12.2c-6.2-1.7-11.1-3.1-14.4-4.2c-0.9-0.3-1.7-0.5-2.3-0.7l-1.5-0.5l-1-0.3l-0.2-0.1l-0.1,0
	C146.1,128.5,116.8,122.6,91.2,120.3z"/>
</svg>
